<?xml version="1.0" encoding="UTF-8"?>
<svg width="42px" height="42px" viewBox="0 0 42 42" version="1.1" xmlns="http://www.w3.org/2000/svg" xmlns:xlink="http://www.w3.org/1999/xlink">
    <title>logo@2x</title>
    <g id="Safeheron-Snap" stroke="none" stroke-width="1" fill="none" fill-rule="evenodd">
        <g id="Homepage" transform="translate(-410.000000, -12.000000)" fill-rule="nonzero">
            <g id="logo" transform="translate(410.000000, 12.000000)">
                <path d="M21,0 C9.4023636,0 0,9.4023636 0,21 C0,32.5976364 9.4023636,42 21,42 C32.5984692,42 42,32.5976364 42,21 C42,9.4023636 32.5984692,0 21,0 L21,0 Z" id="Fill-1" fill="#496CE9"></path>
                <path d="M8.3888404,17.4539181 L26.1508963,29.0340657 C26.3149588,29.1556552 26.4115641,29.3472002 26.4115641,29.5520701 L26.3241196,35.1843274 C26.3241196,35.7881108 25.5945828,36.0920844 25.1665213,35.6656884 L8.35302983,20.1713594 C8.11984451,19.9398398 7.9882614,19.6233741 7.9882614,19.2944162 L7.9882614,17.6554569 C7.9882614,17.4497541 8.22311234,17.330663 8.3888404,17.4539181 Z M18.0385469,6.33014753 L34.9369844,21.9735485 C35.1751666,22.2067338 35.3092481,22.525698 35.3092481,22.8588198 L35.3092481,24.5602395 C35.3092481,24.7659423 35.0760628,24.8850333 34.9095019,24.7634439 L22.1142925,16.8101602 C21.954394,16.6944004 21.7303696,16.8076618 21.7303696,17.0050365 L21.7303696,17.8578283 C21.7303696,18.1393163 21.8444638,18.409145 22.0451697,18.6065197 L26.0009915,22.4790609 C26.2641577,22.7363975 26.4115641,23.0878411 26.4115641,23.4567735 L26.4115641,26.7471843 C26.4115641,26.9370638 26.1858741,27.0353347 26.0476285,26.9054172 L19.5634121,20.8575904 L17.3148398,18.7356044 C17.0400143,18.4766021 16.8851126,18.1176634 16.8851126,17.7412358 L16.8851126,6.81567259 C16.8851126,6.21522049 17.6088198,5.90958122 18.0385469,6.33014753 Z" fill="#FFFFFF"></path>
            </g>
        </g>
    </g>
</svg>
